<svg width="126" height="42" viewBox="0 0 126 42" fill="none" xmlns="http://www.w3.org/2000/svg">
<g clip-path="url(#clip0_22_110)">
<path d="M20.5639 10.9949H22.7628C22.9094 10.9949 23.056 10.8483 23.056 10.7017C23.056 10.5551 22.9094 10.4085 22.7628 10.4085H20.5639C20.4173 10.4085 20.2707 10.5551 20.2707 10.7017C20.2707 10.8483 20.4173 10.9949 20.5639 10.9949ZM21.6634 30.3457C21.0037 30.3457 20.4906 30.8587 20.4906 31.5184C20.4906 32.1781 21.0037 32.6912 21.6634 32.6912C22.323 32.6912 22.8361 32.1781 22.8361 31.5184C22.7628 30.8587 22.2498 30.3457 21.6634 30.3457ZM16.0194 29.3195H27.3073V12.6807H16.0194V29.3195ZM52.1554 23.8954C51.6423 23.8954 51.1292 24.042 50.6894 24.4085C50.2496 24.775 49.9566 25.2148 49.81 25.8012C49.7367 26.0943 49.7366 26.3142 49.7366 26.4608V28.0734C49.7366 28.8064 49.9566 29.3928 50.3963 29.9059C50.8361 30.419 51.4225 30.6388 52.0821 30.6388C52.8885 30.6388 53.5481 30.3457 53.9879 29.686C54.4277 29.0263 54.6477 28.22 54.6477 27.1938C54.6477 26.2409 54.4277 25.4347 53.9879 24.8483C53.5481 24.1886 52.9618 23.8954 52.1554 23.8954ZM91.6634 23.7488C90.7838 23.7488 90.1241 24.1153 89.6843 24.9216C89.3178 25.5813 89.0979 26.3142 89.0979 27.2671C89.0979 28.1467 89.3178 28.953 89.6843 29.5394C90.1241 30.3457 90.7838 30.7121 91.6634 30.7121C92.4697 30.7121 93.1293 30.3457 93.5691 29.5394C94.0089 28.8797 94.1555 28.1467 94.1555 27.1938C94.1555 26.2409 93.9356 25.508 93.5691 24.9216C93.1293 24.1153 92.5429 23.7488 91.6634 23.7488ZM62.8571 23.8954C62.344 23.8954 61.8309 24.042 61.3911 24.4085C60.9513 24.775 60.6581 25.2148 60.5115 25.8012C60.4382 26.0943 60.4382 26.3142 60.4382 26.4608V28.0734C60.4382 28.8064 60.6581 29.3928 61.0979 29.9059C61.5377 30.419 62.1241 30.6388 62.7837 30.6388C63.59 30.6388 64.2496 30.3457 64.6894 29.686C65.1292 29.0263 65.3491 28.22 65.3491 27.1938C65.3491 26.2409 65.1292 25.4347 64.6894 24.8483C64.2496 24.1886 63.6634 23.8954 62.8571 23.8954ZM40.501 20.3771C40.3544 20.9635 40.1346 21.7697 39.8414 22.9425L38.7419 26.4608H42.4067L41.234 22.9425C41.0141 22.576 40.7942 21.6964 40.501 20.3771ZM108.082 23.6022C107.349 23.6022 106.836 23.8954 106.323 24.4818C105.957 24.9216 105.737 25.508 105.663 26.1676H110.208C110.208 25.508 110.061 24.9949 109.768 24.4818C109.475 23.9687 108.888 23.6022 108.082 23.6022ZM50.0299 14.0001C50.0299 13.9268 50.0299 13.7802 50.0299 13.7069V13.0472C49.1502 13.0472 48.2706 13.1938 48.2706 14.0001C48.2706 14.5132 48.5639 14.7331 49.0037 14.7331C49.5168 14.7331 49.8833 14.3666 50.0299 14.0001ZM38.2288 10.8483C38.0822 10.4085 38.0089 9.96869 37.8623 9.5289C37.789 9.89539 37.6424 10.4085 37.4958 10.8483L36.9827 12.5341H38.7419L38.2288 10.8483ZM110.135 10.3352C111.747 10.3352 112.334 11.6546 112.334 12.754C112.334 12.9739 112.334 13.1938 112.26 13.2671H108.888C108.888 14.1467 109.621 14.5865 110.428 14.5865C111.014 14.5865 111.454 14.5132 111.82 14.3666L112.04 15.2462C111.601 15.4661 111.014 15.5394 110.281 15.5394C108.669 15.5394 107.716 14.5132 107.716 12.9739C107.642 11.6546 108.522 10.3352 110.135 10.3352ZM89.9775 10.4818L90.0508 11.2148C90.2707 10.8483 90.8571 10.3352 91.6634 10.3352C92.5429 10.3352 93.4225 10.9216 93.4225 12.4608V15.4661H92.1765V12.6074C92.1765 11.8745 91.8833 11.3614 91.2236 11.3614C90.7105 11.3614 90.344 11.7279 90.1974 12.0943C90.1241 12.1676 90.1241 12.3875 90.1241 12.4608V15.3928H88.878V11.8745C88.878 11.2881 88.878 10.8483 88.8047 10.4085H89.9775V10.4818ZM76.6371 10.3352C78.2497 10.3352 78.8361 11.6546 78.8361 12.754C78.8361 12.9739 78.8361 13.1938 78.7628 13.2671H75.391C75.391 14.1467 76.124 14.5865 76.9303 14.5865C77.5167 14.5865 77.9565 14.5132 78.323 14.3666L78.5429 15.2462C78.1031 15.4661 77.5168 15.5394 76.7837 15.5394C75.1712 15.5394 74.2183 14.5132 74.2183 12.9739C74.2183 11.6546 75.0246 10.3352 76.6371 10.3352ZM71.4329 8.13623H72.6791V15.4661H71.4329V8.13623ZM61.3911 11.2881C60.878 11.2881 60.3649 11.4347 60.0717 11.6546L59.8517 10.8483C60.2183 10.6284 60.8779 10.4085 61.6842 10.4085C63.2968 10.4085 63.7366 11.4347 63.7366 12.5341V14.3666C63.7366 14.8064 63.7367 15.2462 63.81 15.5394H62.6371L62.5639 14.953C62.2706 15.3195 61.7575 15.6127 61.0979 15.6127C60.0717 15.6127 59.4854 14.8797 59.4854 14.1467C59.4854 12.9006 60.5848 12.2409 62.4906 12.2409V12.1676C62.4173 11.8012 62.2707 11.2881 61.3911 11.2881ZM53.9146 8.35613C54.3545 8.35613 54.6477 8.64932 54.6477 9.01581C54.6477 9.3823 54.3545 9.6755 53.9146 9.6755C53.4748 9.6755 53.1817 9.3823 53.1817 9.01581C53.1817 8.64932 53.4748 8.35613 53.9146 8.35613ZM54.501 10.4818V15.5394H53.255V10.4818H54.501ZM37.056 8.57602H38.6685L40.9408 15.5394H39.5481L38.8885 13.5603H36.6894L36.1031 15.5394H34.7837L37.056 8.57602ZM28.6267 31.5917C28.6267 32.8378 27.6005 33.7907 26.4278 33.7907H16.899C15.6529 33.7907 14.7 32.7645 14.7 31.5917V10.4085C14.7 9.16241 15.7262 8.20953 16.899 8.20953H26.4278C27.6738 8.20953 28.6267 9.23571 28.6267 10.4085V31.5917ZM43.946 32.1048L42.7 28.1467H38.3021L37.1292 32.1048H34.8571L39.1817 18.6179H41.8937L46.2915 32.1048H43.946ZM44.4592 15.4661H43.2131L41.3806 10.4085H42.7733L43.5796 12.9739C43.7262 13.4137 43.7994 13.8535 43.946 14.22C44.0193 13.7802 44.1659 13.4137 44.3125 12.9739L45.1189 10.4085H46.4382L44.4592 15.4661ZM47.0246 14.1467C47.0246 12.9006 48.1241 12.2409 50.0299 12.2409V12.1676C50.0299 11.8745 49.8833 11.2881 49.0037 11.2881C48.4906 11.2881 47.9775 11.4347 47.6842 11.6546L47.4644 10.8483C47.8309 10.6284 48.4906 10.4085 49.2969 10.4085C50.9094 10.4085 51.3492 11.4347 51.3492 12.5341V14.3666C51.3492 14.8064 51.3492 15.2462 51.4225 15.5394H50.2498L50.1764 14.953C49.8832 15.3195 49.3701 15.6127 48.7104 15.6127C47.611 15.6127 47.0246 14.8797 47.0246 14.1467ZM55.5271 31.0053C54.7209 31.8849 53.6947 32.2514 52.5219 32.2514C51.2025 32.2514 50.3229 31.8116 49.7366 30.8587V35.9896H47.5377V25.5813C47.5377 24.5551 47.5377 23.4556 47.4644 22.3561H49.3702L49.5168 23.8954H49.59C50.3229 22.7226 51.4225 22.1362 52.8885 22.1362C54.0612 22.1362 55.014 22.576 55.7471 23.5289C56.4801 24.4085 56.9198 25.6546 56.9198 27.1205C56.8465 28.7331 56.4067 30.0525 55.5271 31.0053ZM57.7994 15.4661H56.48V8.13623H57.7262V15.4661H57.7994ZM66.2287 31.0053C65.4224 31.8849 64.3962 32.2514 63.2235 32.2514C61.9041 32.2514 61.0246 31.8116 60.4382 30.8587V35.9896H58.2393V25.5813C58.2393 24.5551 58.2393 23.4556 58.166 22.3561H60.0717L60.2183 23.8954H60.2915C61.0246 22.7226 62.1241 22.1362 63.59 22.1362C64.7627 22.1362 65.7156 22.576 66.4487 23.5289C67.255 24.4085 67.6214 25.6546 67.6214 27.1205C67.6214 28.7331 67.1083 30.0525 66.2287 31.0053ZM67.6948 15.6127C67.0351 15.6127 66.4487 15.3928 66.0821 14.7331L66.0089 15.4661H64.9094C64.9094 15.0996 64.9826 14.5865 64.9826 14.0734V8.13623H66.2287V11.1415C66.5219 10.6284 67.1083 10.3352 67.8414 10.3352C69.0873 10.3352 69.967 11.3614 69.967 12.9006C70.0403 14.7331 68.8675 15.6127 67.6948 15.6127ZM78.6162 31.1519C77.7367 31.9582 76.4906 32.3247 74.9513 32.3247C73.4854 32.3247 72.3125 32.0315 71.4329 31.5184L71.946 29.686C72.8989 30.2724 73.9251 30.4922 75.0979 30.4922C75.9042 30.4922 76.5639 30.2724 77.0037 29.9059C77.4435 29.5394 77.6633 29.0263 77.6633 28.4399C77.6633 27.9268 77.4435 27.4137 77.077 27.0472C76.7105 26.6807 76.0508 26.3142 75.2444 26.021C72.8989 25.1415 71.7261 23.8221 71.7261 22.1362C71.7261 21.0368 72.1659 20.0839 72.9722 19.4242C73.7785 18.6912 74.9512 18.398 76.2706 18.398C77.5168 18.398 78.5429 18.6179 79.3492 19.0577L78.8361 20.8169C78.1032 20.3771 77.2235 20.2305 76.2706 20.2305C75.5376 20.2305 74.8779 20.4504 74.5114 20.8169C74.1449 21.1833 73.9983 21.5498 73.9983 22.0629C73.9983 22.576 74.2183 23.0158 74.5848 23.3823C74.9513 23.6755 75.611 24.042 76.5639 24.4085C77.7367 24.8483 78.6162 25.4347 79.1293 26.021C79.6424 26.6807 79.9356 27.4137 79.9356 28.3666C79.8623 29.4661 79.4225 30.419 78.6162 31.1519ZM86.2393 23.9687H83.8204V28.7331C83.8204 29.9059 84.2602 30.5655 85.0665 30.5655C85.433 30.5655 85.7995 30.5655 86.0194 30.4922L86.0927 32.1048C85.6529 32.2514 85.1398 32.3247 84.4068 32.3247C83.5272 32.3247 82.8676 32.0315 82.4278 31.5184C81.9147 31.0053 81.6948 30.1258 81.6948 28.8797V23.9687H80.3021V22.3561H81.6948V20.597L83.8204 19.9373V22.3561H86.2393V23.9687ZM85.0665 15.6127C83.6738 15.6127 82.5744 14.6598 82.5744 13.0472C82.5744 11.3614 83.6738 10.4085 85.1398 10.4085C86.6058 10.4085 87.632 11.4347 87.632 12.9739C87.632 14.8064 86.3126 15.6127 85.0665 15.6127ZM95.1817 30.8587C94.3021 31.8116 93.056 32.3247 91.5901 32.3247C90.1241 32.3247 89.0246 31.8849 88.145 30.932C87.2654 29.9792 86.899 28.8064 86.899 27.3404C86.899 25.8011 87.3388 24.5551 88.2183 23.6022C89.0979 22.6493 90.2707 22.1362 91.7367 22.1362C93.2026 22.1362 94.3021 22.576 95.1817 23.5289C95.988 24.4818 96.4278 25.6546 96.4278 27.1205C96.4278 28.6598 95.988 29.9059 95.1817 30.8587ZM97.3806 10.4818H98.1136V9.5289L99.3597 9.16241V10.4818H100.532V11.4347H99.3597V13.6336C99.3597 14.22 99.5062 14.5865 100.019 14.5865C100.239 14.5865 100.386 14.5865 100.532 14.5132V15.4661C100.313 15.5394 100.019 15.6127 99.5796 15.6127C99.1398 15.6127 98.7 15.4661 98.4801 15.1729C98.1869 14.8797 98.1136 14.4399 98.1136 13.7802V11.4347H97.3806V10.4818ZM102.951 24.2619C102.731 24.1886 102.512 24.1886 102.292 24.1886C101.559 24.1886 100.972 24.4818 100.532 25.0682C100.166 25.5813 100.019 26.2409 100.019 26.9739V32.1048H97.8204V25.4347C97.8204 24.3352 97.8204 23.309 97.7471 22.3561H99.6529L99.7262 24.1886H99.7995C100.019 23.5289 100.386 23.0158 100.899 22.6493C101.412 22.2828 101.925 22.1362 102.438 22.1362C102.658 22.1362 102.805 22.1362 102.951 22.1362V24.2619ZM103.318 12.4608V15.4661H102.072V8.13623H103.318V11.1415C103.464 10.9216 103.684 10.7017 103.978 10.5551C104.271 10.4085 104.564 10.3352 104.857 10.3352C105.737 10.3352 106.616 10.9216 106.616 12.5341V15.4661H105.37V12.6074C105.37 11.8745 105.077 11.3614 104.417 11.3614C103.904 11.3614 103.538 11.7279 103.391 12.0943C103.318 12.2409 103.318 12.3142 103.318 12.4608ZM112.26 27.7802H105.737C105.737 28.7331 106.103 29.4661 106.69 29.9792C107.203 30.419 107.936 30.6388 108.815 30.6388C109.768 30.6388 110.648 30.4923 111.454 30.1991L111.82 31.7383C110.868 32.1781 109.841 32.3247 108.522 32.3247C106.983 32.3247 105.81 31.8849 104.93 31.0053C104.051 30.1258 103.611 28.953 103.611 27.4137C103.611 25.9477 104.051 24.7017 104.784 23.7488C105.663 22.7226 106.763 22.2095 108.229 22.2095C109.621 22.2095 110.721 22.7226 111.454 23.7488C112.04 24.5551 112.334 25.5813 112.334 26.8273C112.334 27.1205 112.26 27.487 112.26 27.7802ZM67.4748 11.3614C66.9618 11.3614 66.4486 11.7279 66.3753 12.3142C66.3753 12.3875 66.3021 12.5341 66.3021 12.6807V13.487C66.3021 13.5603 66.3021 13.7069 66.3021 13.7802C66.4487 14.2933 66.8885 14.6598 67.4016 14.6598C68.2079 14.6598 68.6476 14.0001 68.6476 12.9739C68.7209 12.0943 68.2812 11.3614 67.4748 11.3614ZM76.5639 11.2148C75.7576 11.2148 75.4643 11.9477 75.391 12.4608H77.5901C77.6634 12.021 77.4435 11.2148 76.5639 11.2148ZM85.1398 11.2881C84.2602 11.2881 83.8937 12.1676 83.8937 12.9739C83.8937 13.9268 84.4068 14.6598 85.1398 14.6598C85.8728 14.6598 86.3859 13.9268 86.3859 12.9739C86.3126 12.1676 85.9461 11.2881 85.1398 11.2881ZM60.6581 14.0001C60.6581 14.5132 60.9513 14.7331 61.3911 14.7331C61.9042 14.7331 62.2707 14.3666 62.4173 14.0734C62.4173 14.0001 62.4173 13.8535 62.4173 13.7802V13.1205C61.5377 13.0472 60.6581 13.1938 60.6581 14.0001ZM110.061 11.2148C109.255 11.2148 108.962 11.9477 108.888 12.4608H111.087C111.087 12.021 110.868 11.2148 110.061 11.2148Z" fill="white"/>
<path d="M119.978 42H6.02235C2.65922 42 0 39.4346 0 36.356V5.64398C0 2.56544 2.73743 0 6.02235 0H119.978C123.341 0 126 2.56544 126 5.64398V36.356C126 39.4346 123.341 42 119.978 42ZM6.02235 1.46597C3.59776 1.46597 1.56425 3.37173 1.56425 5.64398V36.356C1.56425 38.7016 3.59776 40.534 6.02235 40.534H119.978C122.48 40.534 124.436 38.6283 124.436 36.356V5.64398C124.436 3.29843 122.402 1.46597 119.978 1.46597H6.02235Z" fill="white"/>
</g>
<defs>
<clipPath id="clip0_22_110">
<rect width="126" height="42" fill="white"/>
</clipPath>
</defs>
</svg>
