<svg width="126" height="42" viewBox="0 0 126 42" fill="none" xmlns="http://www.w3.org/2000/svg">
<g clip-path="url(#clip0_22_82)">
<path d="M119.737 42H6.26316C2.8 42 0 39.2147 0 35.7696V6.23037C0 2.78534 2.8 0 6.26316 0H119.737C123.2 0 126 2.78534 126 6.23037V35.7696C126 39.2147 123.2 42 119.737 42ZM6.26316 1.46597C3.61053 1.46597 1.47368 3.59162 1.47368 6.23037V35.7696C1.47368 38.4084 3.61053 40.534 6.26316 40.534H119.737C122.389 40.534 124.526 38.4084 124.526 35.7696V6.23037C124.526 3.59162 122.389 1.46597 119.737 1.46597H6.26316Z" fill="white"/>
<path d="M41.9265 12.2409H41.1159C41.1159 12.0943 41.0422 11.8011 40.8949 11.288H39.7159C39.5686 11.8011 39.4949 12.1676 39.4949 12.2409H38.6843C38.6843 12.1676 38.9054 11.6545 39.2738 10.555C39.7159 9.52883 39.8633 8.94244 39.8633 8.86914H40.8212C40.8212 8.94244 41.0422 9.52883 41.4107 10.555C41.7054 11.5812 41.9265 12.1676 41.9265 12.2409ZM40.6738 10.7749C40.3791 9.89532 40.2317 9.38223 40.2317 9.30893H40.158C40.158 9.38223 40.0107 9.89532 39.7159 10.7749H40.6738Z" fill="white"/>
<path d="M45.242 12.2409H44.5789C44.5789 12.1676 44.3578 11.8011 43.842 11.1414C43.3263 10.4084 43.0315 9.96862 42.9578 9.67542H42.8842C42.9578 10.0419 42.9578 10.4084 42.9578 10.7016C42.9578 11.1414 42.9578 11.6545 42.9578 12.2409H42.2947C42.2947 11.7278 42.3684 11.1414 42.3684 10.4817C42.3684 9.82202 42.3684 9.30893 42.2947 8.86914H43.1052C43.1052 8.94244 43.3263 9.30893 43.7684 9.96862C44.2105 10.6283 44.5052 11.1414 44.5789 11.3613H44.6526C44.5789 10.9948 44.5789 10.6283 44.5789 10.3351C44.5789 9.89532 44.5789 9.38223 44.5789 8.86914H45.242C45.242 9.30893 45.242 9.82202 45.242 10.4817C45.242 11.1414 45.242 11.7278 45.242 12.2409Z" fill="white"/>
<path d="M49.0737 10.4084C49.0737 10.9214 48.9263 11.3612 48.6316 11.7277C48.3369 12.0942 47.8948 12.3141 47.3053 12.3141C47.0842 12.3141 46.7158 12.3141 46.2737 12.3141C46.2737 11.801 46.2737 11.2146 46.2737 10.5549C46.2737 9.89526 46.2737 9.38217 46.2737 8.94238H46.7158C46.7895 8.94238 46.9369 8.94238 47.0842 8.94238C47.2316 8.94238 47.3053 8.94238 47.379 8.94238C48.0421 8.94238 48.4842 9.08898 48.779 9.38217C48.9263 9.60207 49.0737 9.96856 49.0737 10.4084ZM48.3369 10.5549C48.3369 10.1885 48.2632 9.96856 48.0421 9.74867C47.8211 9.52877 47.5263 9.38217 47.1579 9.38217C47.0842 9.38217 47.0106 9.38217 46.8632 9.38217C46.8632 9.74867 46.8632 10.1152 46.8632 10.4816C46.8632 10.9214 46.8632 11.2879 46.8632 11.7277C47.0106 11.7277 47.0842 11.7277 47.2316 11.7277C47.6 11.7277 47.8948 11.5811 48.0421 11.3612C48.2632 11.1413 48.3369 10.8481 48.3369 10.5549Z" fill="white"/>
<path d="M52.5368 12.241H51.7263C51.5052 11.6546 51.3578 11.2148 51.2842 11.0682C51.2105 10.9216 50.9894 10.8483 50.7684 10.8483C50.6947 10.8483 50.5473 10.8483 50.4736 10.8483C50.4736 11.2881 50.4736 11.7279 50.4736 12.1677H49.7368C49.7368 11.6546 49.7368 11.0682 49.7368 10.4085C49.7368 9.74878 49.7368 9.23569 49.7368 8.7959H50.1789C50.2526 8.7959 50.3263 8.7959 50.4736 8.7959C50.621 8.7959 50.7684 8.7959 50.9157 8.7959C51.7263 8.7959 52.0947 9.0891 52.0947 9.60219C52.0947 10.042 51.8736 10.3352 51.4315 10.4818V10.5551C51.5789 10.6284 51.7263 10.775 51.8736 10.9949C52.1684 11.2148 52.3157 11.6546 52.5368 12.241ZM51.5789 9.82208C51.5789 9.45559 51.3578 9.30899 50.9157 9.30899C50.7684 9.30899 50.621 9.30899 50.4736 9.30899C50.4736 9.60218 50.4736 9.89538 50.4736 10.3352C50.5473 10.3352 50.621 10.3352 50.6947 10.3352C51.2842 10.4085 51.5789 10.2619 51.5789 9.82208Z" fill="white"/>
<path d="M56.2946 10.4814C56.2946 10.9945 56.1472 11.4343 55.7788 11.8007C55.484 12.1672 55.0419 12.3138 54.5998 12.3138C54.1577 12.3138 53.7893 12.1672 53.4209 11.8007C53.1261 11.5076 52.9788 11.0678 52.9788 10.5547C52.9788 10.0416 53.1261 9.60175 53.4946 9.23526C53.7893 8.86877 54.2314 8.72217 54.6735 8.72217C55.1156 8.72217 55.484 8.86877 55.8525 9.23526C56.1472 9.60175 56.2946 9.96825 56.2946 10.4814ZM55.5577 10.5547C55.5577 10.1882 55.484 9.89495 55.263 9.67505C55.0419 9.45516 54.8209 9.30856 54.5998 9.30856C54.3788 9.30856 54.1577 9.45516 53.9367 9.67505C53.7893 9.89495 53.6419 10.1882 53.6419 10.5547C53.6419 10.9212 53.7156 11.2144 53.9367 11.4343C54.1577 11.6541 54.3788 11.8007 54.5998 11.8007C54.8209 11.8007 55.0419 11.6541 55.263 11.4343C55.484 11.2144 55.5577 10.9212 55.5577 10.5547Z" fill="white"/>
<path d="M57.7686 12.2409H57.0317C57.0317 11.7278 57.0317 11.1414 57.0317 10.4817C57.0317 9.82202 57.0317 9.30893 57.0317 8.86914H57.7686C57.7686 9.30893 57.7686 9.82202 57.7686 10.4817C57.7686 11.1414 57.7686 11.7278 57.7686 12.2409Z" fill="white"/>
<path d="M61.5262 10.4084C61.5262 10.9214 61.3788 11.3612 61.084 11.7277C60.7893 12.0942 60.3472 12.3141 59.7577 12.3141C59.463 12.3141 59.1682 12.3141 58.7261 12.3141C58.7261 11.801 58.7261 11.2146 58.7261 10.5549C58.7261 9.89526 58.7261 9.38217 58.7261 8.94238H59.1683C59.2419 8.94238 59.3893 8.94238 59.5367 8.94238C59.684 8.94238 59.7577 8.94238 59.8314 8.94238C60.4946 8.94238 60.9367 9.08898 61.2314 9.38217C61.4525 9.60207 61.5262 9.96856 61.5262 10.4084ZM60.863 10.5549C60.863 10.1885 60.7893 9.96856 60.5683 9.74867C60.3472 9.52877 60.0525 9.38217 59.684 9.38217C59.6104 9.38217 59.5367 9.38217 59.3893 9.38217C59.3893 9.74867 59.3893 10.1152 59.3893 10.4816C59.3893 10.9214 59.3893 11.2879 59.3893 11.7277C59.5367 11.7277 59.6104 11.7277 59.7577 11.7277C60.1262 11.7277 60.4209 11.5811 60.5683 11.3612C60.7893 11.1413 60.863 10.8481 60.863 10.5549Z" fill="white"/>
<path d="M66.6105 12.2409H65.7999C65.7999 12.0943 65.7263 11.8011 65.5789 11.288H64.3999C64.2526 11.8011 64.1789 12.1676 64.1789 12.2409H63.3684C63.3684 12.1676 63.5894 11.6545 63.9578 10.555C64.3999 9.52883 64.5473 8.94244 64.5473 8.86914H65.5052C65.5052 8.94244 65.7263 9.52883 66.0947 10.555C66.3894 11.5812 66.6105 12.1676 66.6105 12.2409ZM65.3579 10.7749C65.0631 9.89532 64.9157 9.38223 64.9157 9.30893H64.8421C64.8421 9.38223 64.6947 9.89532 64.3999 10.7749H65.3579Z" fill="white"/>
<path d="M69.6317 9.74867C69.6317 10.1885 69.4844 10.4816 69.1896 10.7015C68.8949 10.9214 68.5265 10.9947 68.0844 10.9947C68.0107 10.9947 67.937 10.9947 67.937 10.9947C67.937 11.2879 67.937 11.7277 67.937 12.3141H67.2002C67.2002 11.801 67.2002 11.2146 67.2002 10.5549C67.2002 9.89526 67.2002 9.38217 67.2002 8.94238H67.6423C67.7159 8.94238 67.8633 8.94238 68.0107 8.94238C68.158 8.94238 68.3791 8.94238 68.4528 8.94238C68.7475 8.94238 69.0423 9.01568 69.2633 9.16228C69.5581 9.23558 69.6317 9.45547 69.6317 9.74867ZM68.9686 9.89526C68.9686 9.52877 68.7475 9.30887 68.2317 9.30887C68.0844 9.30887 68.0107 9.30888 67.8633 9.38217C67.8633 9.67537 67.8633 10.1152 67.8633 10.4816C67.937 10.4816 67.937 10.4816 68.0107 10.4816C68.6738 10.4816 68.9686 10.2618 68.9686 9.89526Z" fill="white"/>
<path d="M72.7999 9.74867C72.7999 10.1885 72.6526 10.4816 72.3578 10.7015C72.0631 10.9214 71.6947 10.9947 71.2526 10.9947C71.1789 10.9947 71.1052 10.9947 71.1052 10.9947C71.1052 11.2879 71.1052 11.7277 71.1052 12.3141H70.3684C70.3684 11.801 70.3684 11.2146 70.3684 10.5549C70.3684 9.89526 70.3684 9.38217 70.3684 8.94238H70.8105C70.8842 8.94238 71.0315 8.94238 71.1789 8.94238C71.3263 8.94238 71.5473 8.94238 71.621 8.94238C71.9157 8.94238 72.2105 9.01568 72.4315 9.16228C72.6526 9.23558 72.7999 9.45547 72.7999 9.74867ZM72.0631 9.89526C72.0631 9.52877 71.842 9.30887 71.3262 9.30887C71.1789 9.30887 71.1052 9.30888 70.9578 9.38217C70.9578 9.67537 70.9578 10.1152 70.9578 10.4816C71.0315 10.4816 71.0315 10.4816 71.1052 10.4816C71.7684 10.4816 72.0631 10.2618 72.0631 9.89526Z" fill="white"/>
<path d="M77.8842 10.4814C77.8842 10.9945 77.7368 11.4343 77.3684 11.8007C77.0737 12.1672 76.6316 12.3138 76.1895 12.3138C75.7474 12.3138 75.3789 12.1672 75.0105 11.8007C74.7158 11.5076 74.5684 11.0678 74.5684 10.5547C74.5684 10.0416 74.7158 9.60175 75.0842 9.23526C75.3789 8.86877 75.8211 8.72217 76.2632 8.72217C76.7053 8.72217 77.0737 8.86877 77.4421 9.23526C77.7368 9.60175 77.8842 9.96825 77.8842 10.4814ZM77.1474 10.5547C77.1474 10.1882 77.0737 9.89495 76.8526 9.67505C76.6316 9.45516 76.4105 9.30856 76.1895 9.30856C75.9684 9.30856 75.7474 9.45516 75.5263 9.67505C75.3789 9.89495 75.2316 10.1882 75.2316 10.5547C75.2316 10.9212 75.3053 11.2144 75.5263 11.4343C75.7474 11.6541 75.9684 11.8007 76.1895 11.8007C76.4105 11.8007 76.6316 11.6541 76.8526 11.4343C77.0737 11.2144 77.1474 10.9212 77.1474 10.5547Z" fill="white"/>
<path d="M81.421 12.2409H80.7579C80.7579 12.1676 80.5368 11.8011 80.0211 11.1414C79.5053 10.4084 79.2105 9.96862 79.1368 9.67542H79.2105C79.2842 10.0419 79.2842 10.4084 79.2842 10.7016C79.2842 11.1414 79.2842 11.6545 79.2842 12.2409H78.6211C78.6211 11.7278 78.6947 11.1414 78.6947 10.4817C78.6947 9.82202 78.6947 9.30893 78.6211 8.86914H79.4316C79.4316 8.94244 79.6526 9.30893 80.0947 9.96862C80.5368 10.6283 80.8316 11.1414 80.9053 11.3613H80.9789C80.9053 10.9948 80.9053 10.6283 80.9053 10.3351C80.9053 9.89532 80.9053 9.38223 80.9053 8.86914H81.5684C81.5684 9.30893 81.5684 9.82202 81.5684 10.4817C81.4211 11.1414 81.421 11.7278 81.421 12.2409Z" fill="white"/>
<path d="M50.621 23.0888C50.621 24.7746 50.1052 26.094 49.1473 27.1202C48.042 28.293 46.4947 28.8793 44.7263 28.8793C42.9578 28.8793 41.4841 28.293 40.3052 27.0469C39.0526 25.8741 38.4631 24.3348 38.4631 22.5757C38.4631 20.8165 39.0526 19.2773 40.3052 18.1045C41.5578 16.9317 43.0315 16.272 44.7263 16.272C45.6105 16.272 46.421 16.4186 47.2315 16.7851C48.042 17.1516 48.6315 17.5914 49.1473 18.1045L48.1157 19.1307C47.3052 18.1778 46.1999 17.738 44.7999 17.738C43.5473 17.738 42.442 18.1778 41.4842 19.0574C40.5263 19.9369 40.0841 21.1097 40.0841 22.5024C40.0841 23.8951 40.5263 25.0678 41.4842 25.9474C42.442 26.827 43.5473 27.2668 44.7999 27.2668C46.1263 27.2668 47.3052 26.827 48.1894 25.9474C48.7789 25.361 49.1473 24.5547 49.221 23.5286H44.7999V22.0626H50.6947C50.5473 22.5024 50.621 22.7956 50.621 23.0888Z" fill="white"/>
<path d="M52.463 21.4033C53.2736 20.597 54.3052 20.1572 55.4841 20.1572C56.7367 20.1572 57.7683 20.597 58.5051 21.4033C59.3157 22.2095 59.6841 23.309 59.6841 24.5551C59.6841 25.8012 59.3157 26.8273 58.5051 27.7069C57.6946 28.5132 56.663 28.953 55.4841 28.953C54.2315 28.953 53.1999 28.5132 52.463 27.7069C51.6525 26.9006 51.2841 25.8012 51.2841 24.5551C51.2104 23.2357 51.6525 22.2095 52.463 21.4033ZM53.5683 26.6807C54.0841 27.1938 54.7473 27.487 55.4841 27.487C56.2209 27.487 56.8841 27.1938 57.3999 26.6807C57.9157 26.1677 58.2104 25.4347 58.2104 24.5551C58.2104 23.6755 57.9157 22.9425 57.3999 22.4294C56.8841 21.9163 56.2209 21.6232 55.4841 21.6232C54.7473 21.6232 54.0841 21.9163 53.5683 22.4294C53.0525 22.9425 52.7578 23.6755 52.7578 24.5551C52.8315 25.4347 53.0525 26.0944 53.5683 26.6807Z" fill="white"/>
<path d="M61.4527 21.4033C62.2632 20.597 63.2948 20.1572 64.4737 20.1572C65.7264 20.1572 66.758 20.597 67.4948 21.4033C68.3053 22.2095 68.6738 23.309 68.6738 24.5551C68.6738 25.8012 68.3053 26.8273 67.4948 27.7069C66.6843 28.5132 65.6527 28.953 64.4737 28.953C63.2211 28.953 62.1895 28.5132 61.4527 27.7069C60.6422 26.9006 60.2737 25.8012 60.2737 24.5551C60.2737 23.2357 60.7158 22.2095 61.4527 21.4033ZM62.6316 26.6807C63.1474 27.1938 63.8106 27.487 64.5474 27.487C65.2843 27.487 65.9474 27.1938 66.4632 26.6807C66.979 26.1677 67.2737 25.4347 67.2737 24.5551C67.2737 23.6755 66.979 22.9425 66.4632 22.4294C65.9474 21.9163 65.2843 21.6232 64.5474 21.6232C63.8106 21.6232 63.1474 21.9163 62.6316 22.4294C62.1158 22.9425 61.8211 23.6755 61.8211 24.5551C61.8211 25.4347 62.1158 26.0944 62.6316 26.6807Z" fill="white"/>
<path d="M73.3895 32.5446C72.4316 32.5446 71.6211 32.3247 70.9579 31.8116C70.3684 31.2985 69.9263 30.7855 69.6316 30.1258L71.0316 29.5394C71.179 29.9792 71.4737 30.3457 71.9158 30.6389C72.3579 30.932 72.8 31.0786 73.3895 31.0786C74.2737 31.0786 74.9369 30.8588 75.379 30.3457C75.8947 29.8326 76.1158 29.1729 76.1158 28.2933V27.487H76.0421C75.7474 27.8535 75.379 28.22 74.8632 28.5132C74.3474 28.8064 73.8316 28.953 73.1684 28.953C72.0632 28.953 71.179 28.5132 70.3684 27.7069C69.5579 26.9006 69.1895 25.8012 69.1895 24.5551C69.1895 23.309 69.5579 22.2828 70.3684 21.4033C71.179 20.597 72.0632 20.1572 73.1684 20.1572C73.7579 20.1572 74.3474 20.3038 74.8632 20.5237C75.379 20.8169 75.7474 21.1101 76.0421 21.5499H76.1158V20.3771H77.5895V28.22C77.5895 29.6127 77.1474 30.7122 76.3369 31.4451C75.6 32.1781 74.5683 32.5446 73.3895 32.5446ZM73.5368 27.487C74.2737 27.487 74.8632 27.1938 75.379 26.6807C75.8947 26.1677 76.1158 25.4347 76.1158 24.4818C76.1158 23.6022 75.8947 22.8692 75.379 22.2828C74.8632 21.7697 74.2737 21.4766 73.5368 21.4766C72.8 21.4766 72.2105 21.7697 71.6948 22.2828C71.179 22.7959 70.8842 23.5289 70.8842 24.4085C70.8842 25.2881 71.179 26.0211 71.6948 26.5341C72.1369 27.1938 72.8 27.487 73.5368 27.487Z" fill="white"/>
<path d="M80.6844 28.6597H79.137V16.5654H80.6844V28.6597Z" fill="white"/>
<path d="M85.7681 28.8794C84.5154 28.8794 83.4839 28.4396 82.747 27.6333C81.9365 26.827 81.5681 25.7275 81.5681 24.4814C81.5681 23.3087 81.9365 22.2825 82.6734 21.4029C83.4102 20.5233 84.3681 20.0835 85.6207 20.0835C86.8734 20.0835 87.8313 20.45 88.5681 21.2563C89.3049 22.0626 89.6734 23.0888 89.6734 24.4814V24.7746H83.1154C83.1891 25.5809 83.4102 26.2406 83.926 26.7537C84.4418 27.2668 85.0312 27.4867 85.6944 27.4867C86.7997 27.4867 87.5365 27.0469 87.9786 26.094L89.3786 26.6804C89.0839 27.3401 88.6418 27.8532 88.0523 28.293C87.4628 28.6595 86.726 28.8794 85.7681 28.8794ZM88.0523 23.5286C88.0523 23.0888 87.8312 22.5757 87.3891 22.2092C87.0207 21.7694 86.4313 21.5495 85.6207 21.5495C85.0313 21.5495 84.5155 21.6961 84.147 22.0626C83.7786 22.4291 83.4102 22.8689 83.2628 23.5286H88.0523Z" fill="white"/>
<path d="M95.789 28.6597H94.2417V16.5654H98.368C99.3996 16.5654 100.284 16.9319 101.021 17.5916C101.757 18.2513 102.126 19.1309 102.126 20.1571C102.126 21.1832 101.757 22.0628 101.021 22.7225C100.284 23.3822 99.3996 23.7487 98.368 23.7487H95.789V28.6597ZM95.789 22.2827H98.368C99.0311 22.2827 99.5469 22.0628 99.9154 21.623C100.284 21.1832 100.505 20.6701 100.505 20.1571C100.505 19.644 100.284 19.1309 99.9154 18.6911C99.5469 18.2513 99.0311 18.0314 98.368 18.0314H95.789V22.2827Z" fill="white"/>
<path d="M104.705 28.6597H103.158V16.5654H104.705V28.6597Z" fill="white"/>
<path d="M108.684 28.8797C107.8 28.8797 107.063 28.6598 106.473 28.1467C105.884 27.6336 105.589 26.9739 105.589 26.1677C105.589 25.2881 105.958 24.5551 106.621 24.042C107.284 23.5289 108.168 23.309 109.2 23.309C110.084 23.309 110.895 23.4556 111.41 23.8221V23.6022C111.41 23.0158 111.189 22.5027 110.821 22.1362C110.379 21.7697 109.863 21.6232 109.273 21.6232C108.831 21.6232 108.389 21.6964 108.021 21.9163C107.652 22.1362 107.431 22.4294 107.284 22.7959L105.884 22.2095C106.105 21.6964 106.473 21.2567 106.989 20.8169C107.579 20.3771 108.316 20.1572 109.2 20.1572C110.231 20.1572 111.116 20.4504 111.852 21.1101C112.516 21.6964 112.884 22.576 112.884 23.7488V28.7331H111.41V27.5603H111.337C110.821 28.4399 109.937 28.8797 108.684 28.8797ZM108.979 27.487C109.642 27.487 110.231 27.2671 110.747 26.754C111.263 26.3142 111.558 25.7279 111.558 25.0682C111.116 24.7017 110.452 24.5551 109.568 24.5551C108.831 24.5551 108.242 24.7017 107.873 25.0682C107.505 25.3614 107.284 25.8012 107.284 26.2409C107.284 26.6074 107.431 26.9739 107.8 27.1938C108.094 27.3404 108.537 27.487 108.979 27.487Z" fill="white"/>
<path d="M116.347 32.2513H114.726L116.642 28.0733L113.252 20.377H114.947L117.379 26.3141L119.81 20.377H121.505L116.347 32.2513Z" fill="white"/>
<path d="M9.35791 22.4294C9.35791 18.6178 9.35791 14.733 9.35791 10.9215C9.35791 10.4817 9.4316 10.0419 9.80002 9.67538C9.94739 9.52878 10.021 9.52878 10.1684 9.67538C12.7474 12.3142 15.4 14.9529 17.9789 17.5917C19.6737 19.2775 21.3684 21.0367 23.0632 22.7225C23.2105 22.8691 23.2105 22.9424 23.0632 23.1623C18.9368 27.267 14.8105 31.3718 10.6842 35.4765C10.4631 35.6964 10.2421 35.6964 10.021 35.5498C9.57897 35.1833 9.4316 34.7435 9.4316 34.2304C9.4316 31.9581 9.4316 29.6859 9.4316 27.4136C9.35791 25.6545 9.35791 24.0419 9.35791 22.4294Z" fill="white"/>
<path d="M10.9053 9.16211C11.2 9.16211 11.4211 9.23541 11.6422 9.38201C16.9474 12.314 22.2527 15.2459 27.4843 18.2512C27.7053 18.3978 27.7053 18.4711 27.5579 18.6177C26.379 19.7904 25.2001 20.9632 24.0211 22.136C23.8737 22.2826 23.8001 22.3559 23.6527 22.136C19.4527 17.8847 15.2527 13.6334 10.979 9.30871C10.979 9.30871 10.979 9.23541 10.9053 9.16211Z" fill="white"/>
<path d="M12.0842 35.2564C15.9158 31.3716 19.7474 27.56 23.5789 23.6752C23.8 23.4553 23.9474 23.4553 24.1684 23.6752C25.1263 24.7014 26.1579 25.6543 27.1158 26.6805C27.2632 26.8271 27.3368 26.9004 27.0421 27.0469C22.1053 29.759 17.1684 32.3977 12.2316 35.1098C12.1579 35.1831 12.0842 35.2564 12.0842 35.2564Z" fill="white"/>
<path d="M33.9682 22.5026C33.9682 22.9423 33.7471 23.2355 33.4524 23.4554C33.2313 23.602 32.9366 23.7486 32.7155 23.8952C31.2418 24.7015 29.6945 25.5078 28.2208 26.3874C27.9997 26.534 27.9261 26.4607 27.705 26.3141C26.6734 25.2146 25.5682 24.1151 24.5366 23.0889C24.3892 22.9423 24.3892 22.869 24.5366 22.7224C25.7892 21.4764 27.0418 20.2303 28.2945 19.0575C28.4418 18.9109 28.5155 18.9109 28.7366 18.9842C30.2103 19.7905 31.6839 20.5968 33.1576 21.4764C33.5997 21.623 33.9682 21.9895 33.9682 22.5026Z" fill="white"/>
</g>
<defs>
<clipPath id="clip0_22_82">
<rect width="126" height="42" fill="white"/>
</clipPath>
</defs>
</svg>
