<svg width="128" height="28" viewBox="0 0 128 28" fill="none" xmlns="http://www.w3.org/2000/svg">
<g clip-path="url(#clip0_6_1289)">
<path d="M73.8001 8.37C74.9401 3.79 72.1601 0 65.3501 0H50.5901L45.0601 22.4L48.2701 27.91H58.7701C65.6501 27.91 70.9801 24.7 72.3501 19.12C73.0401 16.26 72.2401 14.26 70.4401 13.26V13.19C72.147 12.0843 73.3531 10.3541 73.8001 8.37ZM64.8001 18.94C64.5201 20.11 63.7301 21.31 60.4601 21.31H53.7601L54.9301 16.51H61.6001C64.8301 16.5 65.0701 17.73 64.7601 18.94H64.8001ZM66.1401 8.52C65.9001 9.42 65.2101 10.52 62.3901 10.52H56.3901L57.3901 6.62H63.3901C66.2401 6.6 66.3801 7.52 66.1401 8.52Z" fill="#14A0FF"/>
<path d="M83.0899 17.1H96.5299L98.0599 10.5H84.7099L85.7499 6.6H98.9699L100.5 0H78.7999L71.9199 27.9H96.4999L98.1099 21.3H82.0999L83.0899 17.1Z" fill="#14A0FF"/>
<path d="M102.38 0L100.84 6.6H108.87L103.6 27.9H112.03L117.31 6.6H125.91L127.56 0H102.38Z" fill="#14A0FF"/>
<path d="M8.82 27.9H0.32L4 13L4.85 10.75L2.6 13L0.1 15.53L0 8.09L8.82 0H15.69L8.82 27.9Z" fill="white"/>
<path d="M39.5101 16.34L36.8001 11.75L49.9501 0H37.7001L32.7001 4.8L15.7401 20.35L7.6001 27.9H19.1901L27.9001 20.13L30.8301 25.13C31.8301 26.39 33.2401 27.92 39.2201 27.92H46.2201L39.5201 16.33L39.5101 16.34Z" fill="white"/>
<path d="M31.7601 3.26V3.2C31.0098 2.15327 30.0086 1.31173 28.8484 0.752619C27.6883 0.193504 26.4063 -0.0652844 25.1201 4.87082e-07H16.0701L22.8201 11.48L31.7601 3.26Z" fill="white"/>
</g>
<defs>
<clipPath id="clip0_6_1289">
<rect width="127.56" height="27.9" fill="white"/>
</clipPath>
</defs>
</svg>
