<svg width="660" height="371" viewBox="0 0 660 371" fill="none" xmlns="http://www.w3.org/2000/svg">
<path d="M116.491 369.92H4.22642L52.8302 172.434L64.0566 142.612L34.3396 172.434L1.32076 205.967L0 107.357L116.491 0.130859H207.226L116.491 369.92Z" fill="#17212B"/>
<path d="M521.83 216.703L486.038 155.867L659.717 0.130859H497.925L431.887 63.7506L207.887 269.852L100.377 369.92H253.453L368.491 266.936L407.189 333.207C420.396 349.907 439.019 370.185 518 370.185H610.453L521.962 216.57L521.83 216.703Z" fill="#17212B"/>
<path d="M419.472 43.3394V42.5442C409.562 28.6707 396.339 17.5169 381.016 10.1063C365.694 2.69578 348.761 -0.734234 331.774 0.131059H212.245L301.396 152.288L419.472 43.3394Z" fill="#17212B"/>
</svg>
