<svg width="764" height="167" viewBox="0 0 764 167" fill="none" xmlns="http://www.w3.org/2000/svg">
<g opacity="0.6" clip-path="url(#clip0_24_121)">
<path d="M442.013 50.1C448.841 22.6857 432.191 0 391.403 0H303.001L269.88 134.079L289.105 167.06H351.993C393.2 167.06 425.123 147.846 433.329 114.446C437.461 97.3269 432.67 85.3556 421.889 79.3699V78.9509C432.113 72.3324 439.336 61.976 442.013 50.1ZM388.109 113.368C386.432 120.372 381.701 127.554 362.115 127.554H321.987L328.994 98.8233H368.943C388.289 98.7635 389.726 106.126 387.87 113.368H388.109ZM396.135 50.9979C394.697 56.385 390.565 62.9692 373.675 62.9692H337.739L343.728 39.6251H379.664C396.734 39.5054 397.572 45.0122 396.135 50.9979Z" fill="#1C508A"/>
<path d="M497.654 102.355H578.151L587.314 62.8495H507.357L513.586 39.5054H592.765L601.928 0H471.96L430.753 167H577.971L587.614 127.495H491.725L497.654 102.355Z" fill="#1C508A"/>
<path d="M613.188 0L603.965 39.5054H652.059L620.495 167H670.986L702.609 39.5054H754.118L764 0H613.188Z" fill="#1C508A"/>
<path d="M52.826 167H1.91659L23.9574 77.8136L29.0483 64.3459L15.5723 77.8136L0.598934 92.9573L0 48.424L52.826 0H93.9727L52.826 167Z" fill="#1C508A"/>
<path d="M236.639 97.8057L220.408 70.3315L299.168 0H225.798L195.851 28.7312L94.2723 121.808L45.519 167H114.935L167.103 120.491L184.651 150.42C190.641 157.962 199.086 167.12 234.902 167.12H276.827L236.699 97.7459L236.639 97.8057Z" fill="#1C508A"/>
<path d="M190.222 19.5133V19.1541C185.728 12.8887 179.731 7.8516 172.783 4.50492C165.834 1.15825 158.156 -0.390775 150.452 -1.51619e-06H96.2488L136.677 68.7154L190.222 19.5133Z" fill="#1C508A"/>
</g>
<defs>
<clipPath id="clip0_24_121">
<rect width="764" height="167" fill="white"/>
</clipPath>
</defs>
</svg>
